<svg width="12" height="12" viewBox="0 0 12 12" fill="none" xmlns="http://www.w3.org/2000/svg">
<path d="M10.8125 10.1562H5.83594L11.4031 4.58358C11.5053 4.48284 11.5865 4.3628 11.6418 4.23042C11.6972 4.09805 11.7257 3.95599 11.7257 3.81249C11.7257 3.669 11.6972 3.52693 11.6418 3.39456C11.5865 3.26219 11.5053 3.14214 11.4031 3.0414L8.95859 0.596866C8.85748 0.495341 8.73731 0.414783 8.60499 0.359815C8.47266 0.304846 8.33079 0.27655 8.1875 0.27655C8.04421 0.27655 7.90234 0.304846 7.77001 0.359815C7.63769 0.414783 7.51752 0.495341 7.41641 0.596866L0.853906 7.15937C0.751714 7.2601 0.670564 7.38015 0.615173 7.51252C0.559782 7.6449 0.531255 7.78696 0.53125 7.93046V10.375C0.532687 10.6646 0.648383 10.942 0.85319 11.1468C1.058 11.3516 1.33536 11.4673 1.625 11.4687H10.8125C10.9865 11.4687 11.1535 11.3996 11.2765 11.2765C11.3996 11.1535 11.4688 10.9865 11.4688 10.8125C11.4688 10.6384 11.3996 10.4715 11.2765 10.3485C11.1535 10.2254 10.9865 10.1562 10.8125 10.1562ZM8.1875 1.67968L10.3203 3.81249L9.5 4.6328L7.36719 2.49999L8.1875 1.67968ZM1.84375 10.1562V8.02343L6.4375 3.42968L8.57031 5.56249L3.97656 10.1562H1.84375Z" fill="#4F4F4F"/>
</svg>
